<svg width="77" height="13" viewBox="0 0 77 13" fill="none" xmlns="http://www.w3.org/2000/svg">
<path d="M4.864 7.248L6.848 0.815999H9.456L11.424 7.248L13.648 0.815999H16.352L12.448 12H10.592L8.144 4.224L5.712 12H3.856L-0.048 0.815999H2.656L4.864 7.248ZM24.9889 10.752C24.0182 11.6693 22.8769 12.128 21.5649 12.128C20.2635 12.128 19.1862 11.728 18.3329 10.928C17.4795 10.1173 17.0529 9.03467 17.0529 7.68C17.0529 6.32533 17.4849 5.248 18.3489 4.448C19.2235 3.648 20.2529 3.248 21.4369 3.248C22.6209 3.248 23.6235 3.60533 24.4449 4.32C25.2769 5.03467 25.6929 6.016 25.6929 7.264V8.544H19.4209C19.4955 9.01333 19.7409 9.39733 20.1569 9.696C20.5729 9.99467 21.0422 10.144 21.5649 10.144C22.4075 10.144 23.1009 9.86133 23.6449 9.296L24.9889 10.752ZM23.2609 6.832C23.2075 6.32 23.0155 5.92533 22.6849 5.648C22.3542 5.37067 21.9489 5.232 21.4689 5.232C20.9995 5.232 20.5675 5.376 20.1729 5.664C19.7782 5.952 19.5489 6.34133 19.4849 6.832H23.2609ZM29.9235 12H27.5235V0.127999H29.9235V12ZM36.4234 10C37.2234 10 37.9434 9.6 38.5834 8.8L40.0074 10.4C38.898 11.552 37.698 12.128 36.4074 12.128C35.1167 12.128 34.0234 11.7227 33.1274 10.912C32.242 10.0907 31.7994 9.024 31.7994 7.712C31.7994 6.38933 32.2474 5.31733 33.1434 4.496C34.05 3.664 35.122 3.248 36.3594 3.248C36.978 3.248 37.602 3.376 38.2314 3.632C38.8714 3.888 39.4314 4.26667 39.9114 4.768L38.6634 6.4C38.386 6.06933 38.0447 5.81333 37.6394 5.632C37.2447 5.45067 36.85 5.36 36.4554 5.36C35.826 5.36 35.282 5.568 34.8234 5.984C34.3754 6.38933 34.1514 6.96 34.1514 7.696C34.1514 8.42133 34.3754 8.98667 34.8234 9.392C35.282 9.79733 35.8154 10 36.4234 10ZM43.4873 7.696C43.4873 8.4 43.6846 8.976 44.0793 9.424C44.4846 9.86133 44.9966 10.08 45.6153 10.08C46.2446 10.08 46.7566 9.86133 47.1513 9.424C47.5566 8.976 47.7593 8.4 47.7593 7.696C47.7593 6.992 47.5566 6.416 47.1513 5.968C46.7566 5.52 46.2446 5.296 45.6153 5.296C44.9966 5.296 44.4846 5.52 44.0793 5.968C43.6846 6.416 43.4873 6.992 43.4873 7.696ZM50.1753 7.696C50.1753 8.944 49.7433 9.99467 48.8793 10.848C48.0153 11.7013 46.9273 12.128 45.6153 12.128C44.3139 12.128 43.2313 11.7013 42.3673 10.848C41.5033 9.99467 41.0713 8.944 41.0713 7.696C41.0713 6.448 41.5033 5.39733 42.3673 4.544C43.2313 3.68 44.3139 3.248 45.6153 3.248C46.9273 3.248 48.0153 3.68 48.8793 4.544C49.7433 5.39733 50.1753 6.448 50.1753 7.696ZM59.9619 7.36V12H57.5459V7.296C57.5459 6.61333 57.4392 6.112 57.2259 5.792C57.0232 5.472 56.6872 5.312 56.2179 5.312C55.7592 5.312 55.3485 5.488 54.9859 5.84C54.6339 6.18133 54.4579 6.688 54.4579 7.36V12H52.0579V3.392H54.4579V4.368C55.1192 3.62133 55.8765 3.248 56.7299 3.248C57.2739 3.248 57.7645 3.408 58.2019 3.728C58.6499 4.048 58.9859 4.43733 59.2099 4.896C59.5405 4.37333 59.9832 3.968 60.5379 3.68C61.1032 3.392 61.6685 3.248 62.2339 3.248C63.2472 3.248 64.0632 3.552 64.6819 4.16C65.3005 4.75733 65.6099 5.62667 65.6099 6.768V12H63.1939V7.296C63.1939 5.97333 62.7085 5.312 61.7379 5.312C61.2579 5.312 60.8419 5.488 60.4899 5.84C60.1379 6.18133 59.9619 6.688 59.9619 7.36ZM75.3482 10.752C74.3776 11.6693 73.2362 12.128 71.9242 12.128C70.6229 12.128 69.5456 11.728 68.6922 10.928C67.8389 10.1173 67.4122 9.03467 67.4122 7.68C67.4122 6.32533 67.8442 5.248 68.7082 4.448C69.5829 3.648 70.6122 3.248 71.7962 3.248C72.9802 3.248 73.9829 3.60533 74.8042 4.32C75.6362 5.03467 76.0522 6.016 76.0522 7.264V8.544H69.7802C69.8549 9.01333 70.1002 9.39733 70.5162 9.696C70.9322 9.99467 71.4016 10.144 71.9242 10.144C72.7669 10.144 73.4602 9.86133 74.0042 9.296L75.3482 10.752ZM73.6202 6.832C73.5669 6.32 73.3749 5.92533 73.0442 5.648C72.7136 5.37067 72.3082 5.232 71.8282 5.232C71.3589 5.232 70.9269 5.376 70.5322 5.664C70.1376 5.952 69.9082 6.34133 69.8442 6.832H73.6202Z" fill="#23A6F0"/>
</svg>
